<svg xmlns:dc="http://purl.org/dc/elements/1.1/" xmlns:cc="http://creativecommons.org/ns#" xmlns:rdf="http://www.w3.org/1999/02/22-rdf-syntax-ns#" xmlns:svg="http://www.w3.org/2000/svg" xmlns="http://www.w3.org/2000/svg" height="113" width="549" xml:space="preserve" version="1.1"><rect id="backgroundrect" width="100%" height="100%" x="0" y="0" fill="none" stroke="none" class="" style=""/><metadata id="metadata8"><rdf:RDF><cc:Work rdf:about=""><dc:format>image/svg+xml</dc:format><dc:type rdf:resource="http://purl.org/dc/dcmitype/StillImage"/></cc:Work></rdf:RDF></metadata><defs id="defs6"/><g class="currentLayer" style=""><title>Layer 1</title><g id="g10" class=""><path id="path12" style="fill:#ffffff;fill-opacity:1;fill-rule:nonzero;stroke:none" d="M1.711978541152348e-7,-0.0000015364585976840317 H166.22532934889787 V112.9119956407414 H1.711978541152348e-7 z" stroke-width="0"/><path id="path14" style="fill:#254aa5;fill-opacity:1;fill-rule:nonzero;stroke:none" d="M3.1973334245978506,3.0973317194413994 H163.02932942879784 V109.6519957222414 H3.1973334245978506 z" stroke-width="0"/><g id="g16" stroke-width="0"><path id="path18" style="fill:#fff200;fill-opacity:1;fill-rule:nonzero;stroke:none" d="M79.7066667169426,26.3111954782875 L83.0799999659426,23.851195539787504 L86.4519998816426,26.3111954782875 L85.1693332470426,22.3325289110875 L88.59466649474261,19.872528972587503 H84.37199993364261 L83.0799999659426,15.841862406687497 L81.78799999824261,19.8765289724875 L77.56666677044261,19.872528972587503 L80.99066668484261,22.3325289110875 z" stroke-width="0"/></g><g id="g20" stroke-width="0"><path id="path22" style="fill:#fff200;fill-opacity:1;fill-rule:nonzero;stroke:none" d="M62.254132159766385,31.002662646157063 L65.62613207546639,28.539996041057066 L68.99679865786639,31.002662646157063 L67.71546535656638,27.021329412357062 L71.13946527096638,24.561329473857064 H66.91679870986638 L65.62346540886638,20.529329574657062 L64.33146544116639,24.56532947375706 L60.11146554666638,24.561329473857064 L63.53546546106638,27.021329412357062 z" stroke-width="0"/></g><g id="g24" stroke-width="0"><path id="path26" style="fill:#fff200;fill-opacity:1;fill-rule:nonzero;stroke:none" d="M52.85506419812852,33.326799957845296 L51.56306423042852,37.365466523545294 L47.34173100262852,37.360133190345294 L50.76706425032852,39.821466462145295 L49.483064282428515,43.8014663626453 L52.85506419812852,41.341466424145295 L56.228397447128515,43.8014663626453 L54.94439747922851,39.821466462145295 L58.36839739362851,37.360133190345294 H54.14839749912852 z" stroke-width="0"/></g><g id="g28" stroke-width="0"><path id="path30" style="fill:#fff200;fill-opacity:1;fill-rule:nonzero;stroke:none" d="M48.17079917851639,58.77213216676407 L51.541465760916395,61.23213210526407 L50.260132459616386,57.25213220476407 L53.684132374016386,54.790798932964066 H49.46279914621638 L48.17079917851639,50.75879903376406 L46.878799210816396,54.80013226606407 L42.65613264971638,54.790798932964066 L46.08279923071639,57.25213220476407 L44.79746592951639,61.23213210526407 z" stroke-width="0"/></g><g id="g32" stroke-width="0"><path id="path34" style="fill:#fff200;fill-opacity:1;fill-rule:nonzero;stroke:none" d="M54.14813464106217,72.2761296318985 L52.85613467336218,68.2427963993985 L51.56413470566217,72.2801296317985 L47.34280147786217,72.2761296318985 L50.76680139226217,74.7387962369985 L49.482801424362165,78.7174628041985 L52.85613467336218,76.2521295324985 L56.228134589062165,78.7174628041985 L54.945467954462174,74.7387962369985 L58.36813453556218,72.2761296318985 z" stroke-width="0"/></g><g id="g36" stroke-width="0"><path id="path38" style="fill:#fff200;fill-opacity:1;fill-rule:nonzero;stroke:none" d="M66.94293412587967,85.07159541715507 L65.65093415817968,81.04359551785507 L64.36026752377967,85.07559541705507 L60.13893429597968,85.07159541715507 L63.56160087707967,87.53159535565507 L62.28160090907967,91.51292858945507 L65.65360082477967,89.05026198435506 L69.02293407387967,91.51292858945507 L67.74160077257967,87.53159535565507 L71.16560068697967,85.07159541715507 z" stroke-width="0"/></g><g id="g40" stroke-width="0"><path id="path42" style="fill:#fff200;fill-opacity:1;fill-rule:nonzero;stroke:none" d="M84.37466586782074,89.70706283056526 L83.08133256682073,85.67506293136526 L81.79199926572073,89.71106283046527 L77.57066603792074,89.70706283056526 L80.99333261902073,92.16972943566526 L79.71199931772074,96.14839600286527 L83.08533256672074,93.68839606436526 L86.45466581582073,96.14839600286527 L85.17199918122074,92.16972943566526 L88.59733242892074,89.70706283056526 z" stroke-width="0"/></g><g id="g44" stroke-width="0"><path id="path46" style="fill:#fff200;fill-opacity:1;fill-rule:nonzero;stroke:none" d="M101.80626536692657,85.07159541715507 L100.51693206582658,81.04359551785507 L99.22226543152658,85.07559541705507 L95.00359887032657,85.07159541715507 L98.42493211812658,87.53159535565507 L97.14359881682657,91.51292858945507 L100.51693206582658,89.05026198435506 L103.88893198152655,91.51292858945507 L102.60359868032657,87.53159535565507 L106.02893192802657,85.07159541715507 z" stroke-width="0"/></g><g id="g48" stroke-width="0"><path id="path50" style="fill:#fff200;fill-opacity:1;fill-rule:nonzero;stroke:none" d="M114.60506265437851,72.2761296318985 L113.31039602007851,68.2427963993985 L112.01706271907852,72.2801296317985 L107.7983961578785,72.2761296318985 l3.4253332477000002,2.4626666051 l-1.2866666345000002,3.9786665672000003 l3.3733332490000003,-2.4653332717000005 l3.3733332490000003,2.4653332717000005 L115.3970626345785,74.7387962369985 L118.82372921557851,72.2761296318985 z" stroke-width="0"/></g><g id="g52" stroke-width="0"><path id="path54" style="fill:#fff200;fill-opacity:1;fill-rule:nonzero;stroke:none" d="M123.46053118299179,54.74346608909531 H119.23786462189179 L117.94319798759179,50.7127995231953 L116.65386468649177,54.746132755695314 L112.42986479209179,54.74346608909531 l3.4253332477000002,2.4613332718 l-1.2813333013000001,3.9813332338 l3.3693332491000003,-2.4666666050000003 l3.3719999157,2.4666666050000003 l-1.279999968,-3.9813332338 z" stroke-width="0"/></g><g id="g56" stroke-width="0"><path id="path58" style="fill:#fff200;fill-opacity:1;fill-rule:nonzero;stroke:none" d="M109.9390674910805,43.74746416672973 L113.3110674067805,41.28746422822972 L116.68440065578051,43.74746416672973 L115.3990673545805,39.768797599529734 L118.82306726898048,37.31279766092973 H114.6057340410805 L113.3110674067805,33.27813109512972 L112.0164007724805,37.31679766082972 L107.79906754458048,37.31279766092973 L111.2244007922805,39.768797599529734 z" stroke-width="0"/></g><g id="g60" stroke-width="0"><path id="path62" style="fill:#fff200;fill-opacity:1;fill-rule:nonzero;stroke:none" d="m100.5641287606102,20.53252944436875 l-1.2893333011,4.0359998991 l-4.2239998944,-0.006666666500000002 l3.4226665811000005,2.4639999383999998 l-1.2813333013000001,3.9813332338 l3.3759999156,-2.4666666050000003 l3.3693332491000003,2.4666666050000003 l-1.2813333013000001,-3.9813332338 l3.4253332477000002,-2.4639999383999998 H101.85346206171019 z" stroke-width="0"/></g><text id="text68" style="font-variant:normal;font-weight:normal;font-stretch:normal;font-size:19px;font-family:'Trebuchet MS';-inkscape-font-specification:TrebuchetMS;writing-mode:lr-tb;fill:#231f20;fill-opacity:1;fill-rule:nonzero;stroke:none" transform="matrix(1.3333333,0,0,1.3333333,207.5279948118,72.53653624431999) " stroke-width="0" y="-28.524004695644063" x="-23.397999871601627"><tspan id="tspan64" y="-28.524004695644063" x="-23.397999871601627">Evropská unie</tspan><tspan id="tspan66" y="-6.522003695644063" x="-23.397999871601627">Evropský sociální fond</tspan></text>
<text id="text72" style="font-variant:normal;font-weight:normal;font-stretch:normal;font-size:19px;font-family:'Trebuchet MS';-inkscape-font-specification:TrebuchetMS;writing-mode:lr-tb;fill:#231f20;fill-opacity:1;fill-rule:nonzero;stroke:none" transform="matrix(1.3333333,0,0,1.3333333,207.5279948118,131.20853477752) " stroke-width="0" y="-28.524004695644066" x="-23.397999871601627"><tspan id="tspan70" y="-28.524004695644066" x="-23.397999871601627">Operační program Zaměstnanost</tspan></text>
</g></g></svg>